#tb 0: 1/5
0,          0,          0,        1,    18432, 0xac484db5
0,          1,          1,        1,    18432, 0x94734db6
0,          2,          2,        1,    18432, 0x3fac4db3
0,          3,          3,        1,    18432, 0x37a94dcd
0,          4,          4,        1,    18432, 0x2b3e4dbb
0,          5,          5,        1,    18432, 0xd23a67bf
0,          6,          6,        1,    18432, 0x898368e1
0,          7,          7,        1,    18432, 0x79466438
0,          8,          8,        1,    18432, 0x458c5d95
0,          9,          9,        1,    18432, 0x9d9a56ee
